# AST/ASF file generated using VICON BodyLanguage
# -----------------------------------------------
:version 1.10
:name VICON
:units
  mass 1.0
  length 0.45
  angle deg
:documentation
   .ast/.asf automatically generated from VICON data using
   VICON BodyBuilder and BodyLanguage model FoxedUp or BRILLIANT.MOD
:root
   order TX TY TZ RX RY RZ
   axis XYZ
   position 0 0 0  
   orientation 0 0 0 
:bonedata
  begin
     id 1 
     name lhipjoint
     direction 0.61886 -0.69539 0.365302 
     length 2.20474 
     axis 0 0 0  XYZ
  end
  begin
     id 2 
     name lfemur
     direction 0.34202 -0.939693 0  
     length 6.65149  
     axis 0 0 20  XYZ
    dof rx ry rz
    limits (-160.0 20.0)
           (-70.0 70.0)
           (-60.0 70.0)
  end
  begin
     id 3 
     name ltibia
     direction 0.34202 -0.939693 0   
     length 6.35814   
     axis 0 0 20   XYZ
    dof rx
    limits (-10.0 170.0)
  end
  begin
     id 4 
     name lfoot
     direction 0.101224 -0.278109 0.955201   
     length 2.18766   
     axis -90 7.62852e-016 20   XYZ
    dof rx rz
    limits (-45.0 90.0)
           (-70.0 20.0)
  end
  begin
     id 5 
     name ltoes
     direction 1.53524e-011 -4.21877e-011 1   
     length 1.09206   
     axis -90 7.62852e-016 20   XYZ
    dof rx
    limits (-90.0 20.0)
  end
  begin
     id 6 
     name rhipjoint
     direction -0.600207 -0.708087 0.371972   
     length 2.1652  
     axis 0 0 0  XYZ 
  end
  begin
     id 7 
     name rfemur
     direction -0.34202 -0.939693 0   
     length 6.54691   
     axis 0 0 -20   XYZ
    dof rx ry rz
    limits (-160.0 20.0)
           (-70.0 70.0)
           (-70.0 60.0)
  end
  begin
     id 8 
     name rtibia
     direction -0.34202 -0.939693 0   
     length 6.37474   
     axis 0 0 -20   XYZ
    dof rx
    limits (-10.0 170.0)
 end
 begin
     id 9 
     name rfoot
     direction -0.111266 -0.3057 0.945604   
     length 2.00903  
     axis -90 -7.62852e-016 -20   XYZ
    dof rx rz
    limits (-45.0 90.0)
           (-20.0 70.0)
  end
  begin
     id 10 
     name rtoes
     direction -1.5362e-011 -4.21913e-011 1   
     length 1.00221   
     axis -90 -7.62852e-016 -20   XYZ
    dof rx
    limits (-90.0 20.0)
  end
  begin
     id 11 
     name lowerback
     direction -0.0224561 0.999731 -0.00577314   
     length 2.10409   
     axis 0 0 0   XYZ
    dof rx ry rz
    limits (-20.0 45.0)
           (-30.0 30.0)
           (-30.0 30.0)
  end
  begin
     id 12 
     name upperback
     direction 0.0213126 0.999185 -0.0342817   
     length 2.09783   
     axis 0 0 0   XYZ
    dof rx ry rz
    limits (-20.0 45.0)
           (-30.0 30.0)
           (-30.0 30.0)
  end
  begin
     id 13 
     name thorax
     direction 0.0312356 0.999036 -0.0308451   
     length 2.09788   
     axis 0 0 0   XYZ
    dof rx ry rz
    limits (-20.0 45.0)
           (-30.0 30.0)
           (-30.0 30.0)
  end
  begin
     id 14 
     name lowerneck
     direction -0.0114419 0.996481 0.0830329   
     length 1.38575   
     axis 0 0 0   XYZ
    dof rx ry rz
    limits (-20.0 45.0)
           (-30.0 30.0)
           (-30.0 30.0)
  end
  begin
     id 15 
     name upperneck
     direction -0.0075675 0.996187 -0.0869092   
     length 1.39401   
     axis 0 0 0   XYZ
    dof rx ry rz
    limits (-20.0 45.0)
           (-30.0 30.0)
           (-30.0 30.0)
  end
  begin
     id 16
     name head
     direction -0.00222073 0.999264 -0.0382974  
     length 1.3964  
     axis 0 0 0   XYZ
    dof rx ry rz
    limits (-20.0 45.0)
           (-30.0 30.0)
           (-30.0 30.0)
  end
  begin
     id 17 
     name lclavicle
     direction 0.965962 0.222138 0.132556  
     length 2.81514  
     axis 0 0 0   XYZ
    dof ry rz
    limits (-20.0 10.0)
           (0.0 20.0)
  end
  begin
     id 18 
     name lhumerus
     direction 1 -4.48972e-011 7.03471e-018   
     length 4.47366   
     axis 180 -30 -90   XYZ
    dof rx ry rz
    limits (-60.0 90.0)
           (-90.0 90.0)
           (-90.0 90.0)
  end
  begin
     id 19
     name lradius
     direction 1 -4.48951e-011 -6.22192e-028   
     length 3.19948   
     axis 180 -30 -90   XYZ
    dof rx
    limits (-10.0 170.0)
  end
  begin
     id 20
     name lwrist
     direction 1 -4.48967e-011 -1.24264e-027   
     length 1.59974   
     axis 1.40095e-015 90 90   XYZ
    dof ry
    limits (-180.0 0.0)
 end
  begin
     id 21 
     name lhand
     direction 1 -4.4897e-011 -2.48528e-027   
     length 0.492667   
     axis 1.58582e-015 90 90   XYZ
    dof rx rz
    limits (-90.0 90.0)
           (-45.0 45.0)
  end
  begin
     id 22 
     name lfingers
     direction 1 -4.48996e-011 -4.97056e-027   
     length 0.397201   
     axis 3.17164e-015 90 90   XYZ
    dof rx
    limits (0.0 90.0)
  end
  begin
     id 23
     name lthumb
     direction 0.707107 -6.34981e-011 0.707107   
     length 0.570303   
     axis -90 45 2.85299e-015   XYZ
    dof rx rz
    limits (-45.0 45.0)
           (-45.0 45.0)
  end
  begin
     id 24 
     name rclavicle
     direction -0.961164 0.229034 0.153972   
     length 3.09348  
     axis 0 0 0   XYZ 
    dof ry rz
    limits (-10.0 20.0)
           (-20.0 0.0)
  end
  begin
     id 25 
     name rhumerus
     direction -1 -4.48971e-011 -9.06263e-028  
     length 4.3269   
     axis 180 30 90   XYZ
    dof rx ry rz
    limits (-90.0 60.0)
           (-90.0 90.0)
           (-90.0 90.0)
  end
  begin
     id 26 
     name rradius
     direction -1 -4.48953e-011 1.44659e-027   
     length 3.1896   
     axis 180 30 90   XYZ
    dof rx
    limits (-10.0 170.0)
  end
  begin
     id 27 
     name rwrist
     direction -1 -4.48988e-011 -1.24264e-027   
     length 1.5948   
     axis 1.40095e-015 -90 -90   XYZ
    dof ry
    limits (-180.0 0.0)
  end
  begin
     id 28
     name rhand
     direction -1 -4.49033e-011 -2.48528e-027   
     length 0.464496   
     axis 1.58582e-015 -90 -90   XYZ
    dof rx rz
    limits (-90.0 90.0)
           (-45.0 45.0)
  end
  begin
     id 29
     name rfingers
     direction -1 -4.48905e-011 -4.97056e-027   
     length 0.374489   
     axis 3.17164e-015 -90 -90   XYZ
    dof rx
    limits (0.0 90.0)
  end
  begin
     id 30
     name rthumb
     direction -0.707107 -6.34909e-011 0.707107   
     length 0.537693   
     axis -90 -45 -2.85299e-015   XYZ
    dof rx rz
    limits (-45.0 45.0)
           (-45.0 45.0)
  end
:hierarchy
  begin
    root lhipjoint rhipjoint lowerback
    lhipjoint lfemur
    lfemur ltibia
    ltibia lfoot
    lfoot ltoes
    rhipjoint rfemur
    rfemur rtibia
    rtibia rfoot
    rfoot rtoes
    lowerback upperback
    upperback thorax
    thorax lowerneck lclavicle rclavicle
    lowerneck upperneck
    upperneck head
    lclavicle lhumerus
    lhumerus lradius
    lradius lwrist
    lwrist lhand lthumb
    lhand lfingers
    rclavicle rhumerus
    rhumerus rradius
    rradius rwrist
    rwrist rhand rthumb
    rhand rfingers
  end

#!OML:ASF G:\acrobat\cartwheel_test 2\Patient 1\Session 2\acrobat4.ASF
:FULLY-SPECIFIED
:DEGREES
861
root -2.09902 15.2176 -12.3042 -1.31299 19.6155 9.44835
lowerback -2.24466 3.28443 3.71075
upperback -6.01213 4.57432 3.01562
thorax -4.93636 2.20255 0.961384
lowerneck -18.3877 5.30541 3.03388
upperneck -0.717223 6.49266 -2.30623
head 3.18793 3.12281 -0.754182
rclavicle 1.19271e-014 1.59028e-015
rhumerus -38.1272 10.8326 -89.5312
rradius 36.4597
rwrist 7.75214
rhand -16.2357 -32.4915
rfingers 7.12502
rthumb 9.97274 -62.2353
lclavicle 1.19271e-014 1.59028e-015
lhumerus -44.1743 -14.1051 91.8354
lradius 42.8408
lwrist 15.8459
lhand -31.5014 -0.0882709
lfingers 7.12502
lthumb -4.76729 29.8381
rfemur 1.78686 6.47524 13.4482
rtibia 27.6919
rfoot -23.5349 -33.9398
rtoes 4.19704
lfemur -13.6302 4.46162 -16.4737
ltibia 29.0576
lfoot -4.13863 1.44836
ltoes -32.9724
862
root -2.09719 15.2053 -12.3231 -1.49993 19.5405 9.20341
lowerback -2.23681 3.23875 3.76622
upperback -6.03889 4.51464 2.99166
thorax -4.96343 2.169 0.905869
lowerneck -18.4726 5.12193 2.70464
upperneck -0.356875 6.30642 -2.03294
head 3.30263 3.04092 -0.615565
rclavicle -8.5875e-014 -6.99722e-014
rhumerus -37.7921 11.0825 -89.0517
rradius 35.6162
rwrist 8.94311
rhand -19.403 -32.357
rfingers 7.12502
rthumb 6.91618 -62.224
lclavicle -8.5875e-014 -6.99722e-014
lhumerus -44.187 -13.8575 91.7139
lradius 42.3842
lwrist 15.6666
lhand -31.4653 0.003616
lfingers 7.12502
lthumb -4.7324 29.9308
rfemur 1.6544 6.76488 13.755
rtibia 28.0581
rfoot -23.7716 -34.142
rtoes 4.37801
lfemur -13.3187 5.82369 -16.4726
ltibia 30.68
lfoot -5.65054 2.32034
ltoes -32.2195
863
root -2.09322 15.193 -12.3407 -1.51068 19.4685 9.05356
lowerback -2.45326 3.18527 3.70087
upperback -6.0372 4.42585 2.92286
thorax -4.83807 2.1281 0.885236
lowerneck -18.6091 4.97748 2.40729
upperneck -0.115469 6.15586 -1.66264
head 3.3843 2.98147 -0.447148
rclavicle 2.38542e-014 -1.43125e-014
rhumerus -37.1811 11.1918 -88.5039
rradius 34.4059
rwrist 10.1381
rhand -17.1891 -32.8028
rfingers 7.12502
rthumb 9.05289 -62.5885
lclavicle 2.38542e-014 -1.43125e-014
lhumerus -43.9518 -13.5092 91.3755
lradius 41.5098
lwrist 15.313
lhand -31.3018 -0.119206
lfingers 7.12502
lthumb -4.57457 29.8114
rfemur 1.33516 7.11906 13.9528
rtibia 28.5291
rfoot -24.0393 -34.4368
rtoes 4.41767
lfemur -13.0001 6.96681 -16.5587
ltibia 32.3446
lfoot -7.2514 2.84347
ltoes -31.5696
864
root -2.08274 15.1779 -12.3608 -1.3902 19.2292 8.89377
lowerback -2.82158 3.19027 3.65196
upperback -5.98553 4.40423 2.88367
thorax -4.57512 2.1229 0.895489
lowerneck -18.6373 4.84473 2.14866
upperneck -0.12143 6.01111 -1.24911
head 3.35829 2.92892 -0.276571
rclavicle 2.22639e-014 3.81667e-014
rhumerus -36.2952 11.133 -87.7887
rradius 32.8895
rwrist 11.1329
rhand -16.0599 -32.8489
rfingers 7.12502
rthumb 10.1424 -62.5845
lclavicle 2.22639e-014 3.81667e-014
lhumerus -43.4758 -13.1735 90.9939
lradius 40.3301
lwrist 14.9794
lhand -31.287 -0.226301
lfingers 7.12502
lthumb -4.5603 29.7046
rfemur 0.744986 7.34191 14.0221
rtibia 29.1099
rfoot -24.2243 -34.5143
rtoes 4.26207
lfemur -12.6522 7.72887 -16.6283
ltibia 33.9662
lfoot -9.01269 3.10369
ltoes -30.3692
865
root -2.06468 15.1568 -12.3875 -1.29927 18.836 8.72478
lowerback -3.04149 3.23686 3.69801
upperback -5.89912 4.44624 2.87384
thorax -4.35537 2.1449 0.875571
lowerneck -18.4673 4.74739 1.97217
upperneck -0.409056 5.91173 -1.03473
head 3.20693 2.89117 -0.191812
rclavicle -2.38542e-015 -4.77083e-015
rhumerus -35.2652 10.4165 -86.7159
rradius 31.2674
rwrist 12.7191
rhand -16.7457 -32.4625
rfingers 7.12502
rthumb 9.48071 -62.2293
lclavicle -2.38542e-015 -4.77083e-015
lhumerus -42.8523 -12.7183 90.6046
lradius 38.899
lwrist 14.5925
lhand -31.7543 0.212172
lfingers 7.12502
lthumb -5.01153 30.1329
rfemur 0.0808483 7.40968 13.9835
rtibia 29.7563
rfoot -24.4327 -34.267
rtoes 4.44024
lfemur -12.2118 8.30241 -16.7258
ltibia 35.5057
lfoot -10.7763 3.19976
ltoes -29.8461
866
root -2.04204 15.133 -12.4224 -1.23362 18.4617 8.59528
lowerback -3.08479 3.28682 3.76685
upperback -5.76907 4.50012 2.84366
thorax -4.18594 2.17043 0.812975
lowerneck -18.0187 4.69425 1.95299
upperneck -1.18235 5.85851 -1.0934
head 2.84958 2.86637 -0.234818
rclavicle 2.38542e-014 1.43125e-014
rhumerus -34.1349 9.01737 -85.3798
rradius 29.6976
rwrist 14.5753
rhand -16.986 -32.4147
rfingers 7.12502
rthumb 9.24881 -62.1918
lclavicle 2.38542e-014 1.43125e-014
lhumerus -42.0955 -12.1202 90.1124
lradius 37.2586
lwrist 14.1442
lhand -32.1123 0.520757
lfingers 7.12502
lthumb -5.35718 30.433
rfemur -0.575514 7.39972 13.8621
rtibia 30.4319
rfoot -24.7021 -33.8728
rtoes 4.83371
lfemur -11.7266 8.65977 -16.9227
ltibia 36.8824
lfoot -12.3746 3.3727
ltoes -30.3013
867
root -2.01624 15.1119 -12.4641 -1.21471 18.1132 8.34076
lowerback -2.97527 3.32699 3.96325
upperback -5.6298 4.55166 2.86432
thorax -4.08832 2.18979 0.723559
lowerneck -17.386 4.68395 1.96768
upperneck -2.18384 5.85938 -1.17211
head 2.38673 2.86878 -0.292602
rclavicle 5.56597e-015 5.56597e-014
rhumerus -32.9281 7.38209 -83.9562
rradius 28.1688
rwrist 16.1533
rhand -17.6915 -32.6412
rfingers 7.12502
rthumb 8.5681 -62.4474
lclavicle 5.56597e-015 5.56597e-014
lhumerus -41.3358 -11.6033 89.6716
lradius 35.537
lwrist 13.8495
lhand -32.1302 0.612118
lfingers 7.12502
lthumb -5.37445 30.524
rfemur -1.24429 7.40332 13.8606
rtibia 31.1178
rfoot -24.9582 -33.4772
rtoes 5.15436
lfemur -11.2162 8.80459 -17
ltibia 38.015
lfoot -13.8207 3.50021
ltoes -30.4314
868
root -1.98546 15.095 -12.5089 -1.14534 17.7559 8.05407
lowerback -2.76141 3.36339 4.2296
upperback -5.55089 4.6102 2.9113
thorax -4.11007 2.2085 0.614358
lowerneck -16.8029 4.70693 1.92093
upperneck -2.98725 5.91085 -1.14461
head 2.003 2.89952 -0.29739
rclavicle 6.44062e-014 -3.81667e-014
rhumerus -31.8986 5.90326 -82.6245
rradius 26.895
rwrist 17.075
rhand -18.464 -32.974
rfingers 7.12502
rthumb 7.82249 -62.8092
lclavicle 6.44062e-014 -3.81667e-014
lhumerus -40.7714 -11.2854 89.4019
lradius 33.961
lwrist 13.9149
lhand -31.9371 0.724841
lfingers 7.12502
lthumb -5.18799 30.6413
rfemur -1.99012 7.34394 13.84
rtibia 31.7835
rfoot -25.0579 -33.0347
rtoes 5.12086
lfemur -10.7452 8.9302 -17.1089
ltibia 38.8325
lfoot -14.9785 3.58493
ltoes -30.3047
869
root -1.94681 15.0791 -12.553 -0.942194 17.4533 7.98517
lowerback -2.57022 3.39939 4.30087
upperback -5.45398 4.66522 2.91826
thorax -4.11044 2.23307 0.573005
lowerneck -16.3853 4.76259 1.91443
upperneck -3.68973 5.99662 -1.18541
head 1.6923 2.94383 -0.323653
rclavicle -2.22639e-014 -1.59028e-015
rhumerus -31.0655 4.38082 -81.2845
rradius 26.0162
rwrist 17.6799
rhand -18.5191 -33.245
rfingers 7.12502
rthumb 7.76931 -63.0822
lclavicle -2.22639e-014 -1.59028e-015
lhumerus -40.2816 -11.1336 89.2517
lradius 32.5396
lwrist 14.025
lhand -31.7553 0.686083
lfingers 7.12502
lthumb -5.01247 30.6068
rfemur -2.76004 7.12065 13.5157
rtibia 32.3684
rfoot -25.1043 -32.4831
rtoes 5.1307
lfemur -10.3134 8.91937 -17.5968
ltibia 39.2566
lfoot -15.7087 3.8997
ltoes -30.4659
870
root -1.90248 15.0631 -12.5936 -0.694232 17.2718 7.98406
lowerback -2.40326 3.38125 4.20434
upperback -5.32994 4.64799 3.00068
thorax -4.08872 2.23113 0.704077
lowerneck -15.8663 4.86921 1.98088
upperneck -4.56547 6.14162 -1.37992
head 1.31901 3.01324 -0.412315
rclavicle -5.80451e-014 -3.49861e-014
rhumerus -30.3451 2.89109 -79.8654
rradius 25.4253
rwrist 18.3387
rhand -18.4345 -33.7962
rfingers 7.12502
rthumb 7.85101 -63.6304
lclavicle -5.80451e-014 -3.49861e-014
lhumerus -39.9113 -11.0168 89.2808
lradius 31.2717
lwrist 13.8802
lhand -31.9093 0.676213
lfingers 7.12502
lthumb -5.1612 30.5934
rfemur -3.42256 6.95092 13.1534
rtibia 32.8359
rfoot -25.351 -32.0852
rtoes 5.62321
lfemur -9.87806 8.77342 -18.2518
ltibia 39.2252
lfoot -16.0849 4.27897
ltoes -30.6748
871
root -1.85236 15.0545 -12.6292 -0.375243 17.1164 7.97104
lowerback -2.26934 3.29709 4.06905
upperback -5.24148 4.54584 3.16585
thorax -4.09677 2.18995 0.943439
lowerneck -15.2519 5.04507 2.06626
upperneck -5.46566 6.37506 -1.61565
head 0.931142 3.12625 -0.514715
rclavicle 4.45278e-014 5.725e-014
rhumerus -29.7831 2.30385 -78.7114
rradius 25.1345
rwrist 18.4758
rhand -18.6987 -34.7413
rfingers 7.12502
rthumb 7.59599 -64.5849
lclavicle 4.45278e-014 5.725e-014
lhumerus -39.7652 -10.7002 89.3516
lradius 30.3004
lwrist 13.6049
lhand -32.0737 0.514049
lfingers 7.12502
lthumb -5.31985 30.4273
rfemur -4.03981 7.05515 12.8504
rtibia 33.1817
rfoot -25.7551 -31.9203
rtoes 5.86886
lfemur -9.47259 8.66399 -18.9524
ltibia 38.7193
lfoot -16.4606 4.64349
ltoes -30.089
872
root -1.79662 15.0568 -12.6599 0.0902701 16.8903 7.93879
lowerback -2.40444 3.25506 3.96266
upperback -5.0517 4.47433 3.31586
thorax -3.84231 2.16685 1.17084
lowerneck -14.9432 5.25351 2.23307
upperneck -6.32136 6.63083 -1.9138
head 0.620902 3.24779 -0.641607
rclavicle 3.18055e-015 -5.08889e-014
rhumerus -29.2113 2.13469 -77.7981
rradius 25.1333
rwrist 18.1075
rhand -19.5889 -35.134
rfingers 7.12502
rthumb 6.73666 -65.0069
lclavicle 3.18055e-015 -5.08889e-014
lhumerus -39.5283 -10.3858 89.3473
lradius 29.7126
lwrist 13.2395
lhand -32.0952 0.216488
lfingers 7.12502
lthumb -5.34062 30.1292
rfemur -4.75101 7.31798 12.5477
rtibia 33.3992
rfoot -26.2237 -31.7917
rtoes 6.05612
lfemur -9.21883 8.5755 -19.7076
ltibia 37.7945
lfoot -17.1722 5.53776
ltoes -28.4181
873
root -1.7379 15.0638 -12.6898 0.661398 16.7228 7.84054
lowerback -2.80847 3.22855 3.88611
upperback -4.71953 4.39713 3.49006
thorax -3.28756 2.14425 1.42686
lowerneck -14.9064 5.48559 2.37045
upperneck -7.29373 6.91436 -2.28982
head 0.324157 3.38316 -0.782485
rclavicle 3.89618e-014 4.77083e-014
rhumerus -28.571 1.58426 -76.8136
rradius 25.3326
rwrist 17.8231
rhand -20.5316 -34.7979
rfingers 7.12502
rthumb 5.82663 -64.6978
lclavicle 3.89618e-014 4.77083e-014
lhumerus -39.1077 -10.1113 89.3811
lradius 29.4475
lwrist 12.8352
lhand -32.1849 -0.179974
lfingers 7.12502
lthumb -5.42726 29.7305
rfemur -5.52112 7.62861 12.3201
rtibia 33.5101
rfoot -26.6436 -31.7212
rtoes 6.90501
lfemur -9.18861 8.45082 -20.4372
ltibia 36.5723
lfoot -18.0799 7.41559
ltoes -26.4589
874
root -1.67646 15.0692 -12.7204 1.26442 16.6181 7.79346
lowerback -3.01322 3.18703 3.73946
upperback -4.50024 4.32104 3.65687
thorax -2.96765 2.11959 1.69791
lowerneck -14.9256 5.71226 2.36248
upperneck -8.17003 7.20972 -2.56442
head 0.0608085 3.52995 -0.865837
rclavicle 2.22639e-014 0
rhumerus -28.342 1.38201 -75.967
rradius 25.8147
rwrist 17.077
rhand -20.6572 -34.6483
rfingers 7.12502
rthumb 5.70534 -64.5515
lclavicle 2.22639e-014 0
lhumerus -39.0625 -10.1375 89.6344
lradius 29.6161
lwrist 12.6921
lhand -32.4584 -0.432504
lfingers 7.12502
lthumb -5.69135 29.4711
rfemur -6.26062 7.92091 12.0272
rtibia 33.5453
rfoot -26.7638 -31.6388
rtoes 7.74819
lfemur -9.31243 8.55651 -21.2039
ltibia 35.2613
lfoot -18.6953 9.65794
ltoes -25.1172
